<svg xmlns="http://www.w3.org/2000/svg" width="1024" height="1024" viewBox="0 0 1024 1024">
  <g transform="translate(512 512) scale(1.3664) translate(-512 -512)">
  <!-- Musical note from Heroicons (solid "musical-note", MIT; see THIRD-PARTY-NOTICES.md), centred on the
       screen where GlassPowerTools has its shell prompt. The 24-unit glyph (bounds ≈ 3.2–20.25 × 1.5–22.5,
       centre 11.75, 12) is scaled to ~62% of the screen's height. -->
  <g transform="translate(0 55)">
    <g transform="translate(511.2 410.75) scale(8.1) translate(-11.75 -12)">
      <path fill="#fff" fill-rule="evenodd" d="M19.952 1.651a.75.75 0 0 1 .298.599V16.303a3 3 0 0 1-2.176 2.884l-1.32.377a2.553 2.553 0 1 1-1.403-4.909l2.311-.66a1.5 1.5 0 0 0 1.088-1.442V6.994l-9 2.572v9.737a3 3 0 0 1-2.176 2.884l-1.32.377a2.553 2.553 0 1 1-1.402-4.909l2.31-.66a1.5 1.5 0 0 0 1.088-1.442V5.25a.75.75 0 0 1 .544-.721l10.5-3a.75.75 0 0 1 .658.122Z"/>
    </g>
  </g>
  </g>
</svg>
